<svg preserveAspectRatio="none" width="100%" height="100%" overflow="visible" style="display: block;" viewBox="0 0 267 56.0005" fill="none" xmlns="http://www.w3.org/2000/svg">
<g id="Logo">
<g id="Union">
<path d="M18.6982 0C21.1977 0 23.4128 0.226512 25.3428 0.678711C27.2725 1.0986 28.9494 1.64696 30.373 2.3252C31.7966 3.0034 32.9826 3.68215 33.9316 4.36035L29.376 11.2402C28.3953 10.6912 27.2722 10.2391 26.0068 9.88379C24.7731 9.49623 23.4917 9.20552 22.1631 9.01172C20.8659 8.78562 19.6316 8.67285 18.4609 8.67285C17.3536 8.67285 16.3728 8.73701 15.5186 8.86621C14.6643 8.96311 13.9837 9.15657 13.4775 9.44727C12.9714 9.73796 12.7188 10.1745 12.7188 10.7559C12.7188 11.2081 12.9875 11.5959 13.5254 11.9189C14.0948 12.2096 14.7908 12.4196 15.6133 12.5488C16.4674 12.678 17.3217 12.7743 18.1758 12.8389C19.0299 12.9035 19.7421 12.9686 20.3115 13.0332C22.178 13.227 24.0132 13.5012 25.8164 13.8564C27.6198 14.1794 29.2497 14.6966 30.7051 15.4072C32.1603 16.1178 33.2995 17.1348 34.1221 18.459C34.9763 19.7832 35.4033 21.5439 35.4033 23.7402C35.4033 26.2271 34.6758 28.3428 33.2207 30.0869C31.7653 31.8311 29.7875 33.1561 27.2881 34.0605C24.8204 34.9326 22.0521 35.3681 18.9834 35.3682C16.1676 35.3682 13.5883 35.1096 11.2471 34.5928C8.93765 34.076 6.86518 33.4139 5.03027 32.6064C3.19543 31.7667 1.51851 30.879 0 29.9424L4.46094 21.9961C7.15015 23.7403 9.85532 24.9837 12.5762 25.7266C15.2969 26.4371 17.7172 26.7929 19.8369 26.793C20.438 26.793 21.1348 26.7609 21.9258 26.6963C22.7166 26.5994 23.3812 26.4049 23.9189 26.1143C24.4566 25.8235 24.7256 25.3227 24.7256 24.6123C24.7255 24.2894 24.6149 23.9986 24.3936 23.7402C24.1721 23.4818 23.8232 23.2719 23.3486 23.1104C22.8742 22.9489 22.3048 22.804 21.6406 22.6748C20.9763 22.5456 20.2012 22.4319 19.3154 22.335C18.4296 22.2381 17.4325 22.1574 16.3252 22.0928C14.1424 21.8667 12.1651 21.4797 10.3936 20.9307C8.62181 20.3493 7.10245 19.6221 5.83691 18.75C4.60316 17.8779 3.63837 16.8279 2.94238 15.6006C2.27811 14.3733 1.94537 12.9847 1.94531 11.4346C1.94531 9.59359 2.38865 7.96215 3.27441 6.54102C4.16029 5.11982 5.37843 3.92408 6.92871 2.95508C8.47897 1.98611 10.251 1.25988 12.2441 0.775391C14.269 0.258602 16.4203 1.63557e-06 18.6982 0Z" fill="white"/>
<path d="M210.467 0C212.966 2.81409e-05 215.181 0.22654 217.11 0.678711C219.04 1.09857 220.717 1.64698 222.141 2.3252C223.564 3.00348 224.751 3.68207 225.7 4.36035L221.145 11.2402C220.164 10.6911 219.04 10.2391 217.774 9.88379C216.541 9.49624 215.259 9.2055 213.931 9.01172C212.634 8.78566 211.4 8.67288 210.229 8.67285C209.122 8.67285 208.141 8.73706 207.287 8.86621C206.433 8.96309 205.752 9.15665 205.246 9.44727C204.74 9.73796 204.486 10.1745 204.486 10.7559C204.486 11.2081 204.756 11.5959 205.294 11.9189C205.863 12.2095 206.559 12.4197 207.382 12.5488C208.236 12.678 209.09 12.7743 209.944 12.8389C210.799 12.9035 211.511 12.9686 212.08 13.0332C213.947 13.227 215.782 13.5012 217.585 13.8564C219.388 14.1794 221.017 14.6967 222.473 15.4072C223.928 16.1177 225.067 17.1349 225.89 18.459C226.744 19.7832 227.171 21.5439 227.171 23.7402C227.171 26.2272 226.444 28.3428 224.988 30.0869C223.533 31.8311 221.555 33.1561 219.056 34.0605C216.588 34.9325 213.82 35.3682 210.751 35.3682C207.935 35.3682 205.357 35.1096 203.016 34.5928C200.706 34.076 198.634 33.4139 196.799 32.6064C194.964 31.7667 193.287 30.879 191.769 29.9424L196.229 21.9961C198.919 23.7402 201.624 24.9837 204.345 25.7266C207.065 26.4371 209.486 26.793 211.605 26.793C212.207 26.793 212.903 26.7609 213.693 26.6963C214.484 26.5994 215.149 26.405 215.687 26.1143C216.224 25.8236 216.493 25.3229 216.493 24.6123C216.493 24.2894 216.383 23.9986 216.161 23.7402C215.94 23.4819 215.592 23.2718 215.117 23.1104C214.643 22.9489 214.073 22.804 213.409 22.6748C212.745 22.5456 211.969 22.4319 211.083 22.335C210.197 22.2381 209.201 22.1574 208.094 22.0928C205.911 21.8667 203.933 21.4798 202.161 20.9307C200.389 20.3493 198.871 19.6221 197.605 18.75C196.372 17.8779 195.406 16.828 194.71 15.6006C194.046 14.3734 193.714 12.9846 193.714 11.4346C193.714 9.5935 194.157 7.9622 195.043 6.54102C195.929 5.11982 197.147 3.92408 198.697 2.95508C200.247 1.98629 202.019 1.25984 204.012 0.775391C206.037 0.258593 208.189 0 210.467 0Z" fill="white"/>
<path d="M51.5 13.3643L66.041 1.47363H78.2656L62.1631 14.7568L78.8799 33.8945H66.9834L55.3926 20.3438L51.5 23.5527V33.8945H41.3037V1.47363H51.5V13.3643Z" fill="white"/>
<path d="M97.3594 7.36816V20.6318L110.636 1.47363H122.437L107.685 20.6318V33.8945H97.3594V20.6318L81.1328 1.47363H92.9336L97.3594 7.36816Z" fill="white"/>
<path d="M145.312 15.9922L156.494 1.47363H165.181V33.8945H155.705V16.9219L145.312 30.0049L134.892 16.9902V33.8945H125.387V1.47363H134.168L145.312 15.9922Z" fill="white"/>
<path d="M185.867 33.8945H174.066V10.3154L185.867 1.47363V33.8945Z" fill="white"/>
<path d="M244.876 10.3154L255.199 1.47363H267V10.3154H255.199V33.8945H244.876V10.3154H233.072V1.47363H244.873L244.876 10.3154Z" fill="white"/>
</g>
<g id="Frame 3">
<g id="Union_2">
<path d="M102.482 41.2632C103.715 41.2633 104.813 41.4607 105.773 41.853C106.735 42.2459 107.548 42.7802 108.211 43.4536C108.886 44.1269 109.401 44.9134 109.752 45.811C110.102 46.6945 110.276 47.6357 110.276 48.6313C110.276 49.6416 110.103 50.5976 109.752 51.4956C109.401 52.3794 108.886 53.1591 108.211 53.8325C107.549 54.5055 106.729 55.0374 105.756 55.4302C104.795 55.809 103.703 56.0004 102.482 56.0005H97V52.8452H99.9502L102.385 52.8423C103.15 52.8422 103.812 52.7293 104.37 52.5054C104.928 52.281 105.392 51.9711 105.756 51.5786C106.119 51.186 106.393 50.7365 106.574 50.2319C106.756 49.7128 106.848 49.1785 106.848 48.6313C106.848 48.0846 106.756 47.5589 106.574 47.0542C106.392 46.5494 106.119 46.1002 105.756 45.7075C105.392 45.3146 104.929 45.0024 104.37 44.7778C103.812 44.5401 103.15 44.4234 102.385 44.4233H99.9502V44.4175H97V41.2632H102.482Z" fill="var(--fill-0, white)"/>
<path d="M136.321 41.2632C137.482 41.2632 138.472 41.4605 139.289 41.853C140.119 42.2316 140.758 42.7791 141.202 43.4937C141.661 44.1953 141.891 45.0267 141.891 45.981C141.89 46.9204 141.64 47.7621 141.139 48.5054C140.652 49.2485 139.985 49.8371 139.14 50.272C138.985 50.3504 138.821 50.4133 138.658 50.4771L142.729 56.0005H138.494L134.769 50.9058H131.461V56.0005H127.978V48.188H135.912C136.125 48.188 136.71 48.083 137.054 47.9146C137.397 47.7464 137.674 47.515 137.889 47.2212C138.104 46.9127 138.215 46.5546 138.215 46.1479C138.215 45.7695 138.104 45.4381 137.889 45.1577C137.674 44.8643 137.39 44.6379 137.033 44.4839C136.675 44.3296 136.264 44.2106 135.806 44.2104H127.978V41.2632H136.321Z" fill="var(--fill-0, white)"/>
<path fill-rule="evenodd" clip-rule="evenodd" d="M166.342 41.2632C167.628 41.2632 168.812 41.4526 169.891 41.8315C170.97 42.1969 171.904 42.7184 172.692 43.395C173.481 44.058 174.09 44.836 174.519 45.729C174.961 46.622 175.183 47.5895 175.183 48.6313C175.183 49.6733 174.961 50.6415 174.519 51.5347C174.09 52.4277 173.481 53.2126 172.692 53.8892C171.904 54.5522 170.97 55.0728 169.891 55.4517C168.812 55.817 167.635 56.0005 166.362 56.0005C165.048 56.0005 163.851 55.817 162.772 55.4517C161.693 55.0728 160.759 54.5522 159.971 53.8892C159.182 53.2261 158.567 52.4473 158.124 51.5542C157.695 50.6612 157.48 49.6867 157.48 48.6313C157.481 47.5759 157.695 46.6016 158.124 45.7085C158.567 44.8155 159.182 44.0375 159.971 43.3745C160.773 42.7114 161.707 42.1969 162.772 41.8315C163.852 41.4526 165.041 41.2632 166.342 41.2632ZM166.342 44.5112C165.581 44.5112 164.876 44.619 164.226 44.8354C163.589 45.0384 163.028 45.3296 162.544 45.7085C162.074 46.0738 161.714 46.5068 161.465 47.0073C161.216 47.508 161.092 48.0495 161.092 48.6313C161.092 49.2132 161.216 49.7547 161.465 50.2554C161.714 50.756 162.074 51.1959 162.544 51.5747C163.028 51.9401 163.589 52.2312 164.226 52.4478C164.876 52.6507 165.581 52.7524 166.342 52.7524C167.103 52.7524 167.809 52.6507 168.459 52.4478C169.109 52.2312 169.663 51.94 170.119 51.5747C170.589 51.1959 170.949 50.756 171.198 50.2554C171.461 49.7547 171.592 49.2132 171.592 48.6313C171.592 48.0495 171.461 47.508 171.198 47.0073C170.949 46.5068 170.589 46.0738 170.119 45.7085C169.663 45.3296 169.109 45.0384 168.459 44.8354C167.809 44.6189 167.103 44.5112 166.342 44.5112Z" fill="var(--fill-0, white)"/>
<path d="M204.167 51.1606C204.116 50.8284 204.075 50.5049 204.044 50.1909C203.997 49.7142 203.95 49.2574 203.903 48.8228C203.872 48.3737 203.848 47.9362 203.832 47.5151C203.817 47.0945 203.802 46.6665 203.786 46.2319V41.2632H207.635V56.0005H203.854L193.454 46.2114C193.485 46.5201 193.525 46.8445 193.571 47.1812C193.618 47.5172 193.657 47.8811 193.688 48.2729C193.735 48.6659 193.76 49.0969 193.76 49.5601C193.775 50.0226 193.782 50.5282 193.782 51.0747V56.0005H189.934V41.2632H193.665L204.167 51.1606Z" fill="var(--fill-0, white)"/>
<path d="M237.138 56.0005H222.387V53.0522H237.138V56.0005Z" fill="var(--fill-0, white)"/>
<path d="M259.601 41.2632C260.634 41.2632 261.556 41.3579 262.366 41.5474C263.19 41.7368 263.91 41.9941 264.524 42.3188C265.153 42.6301 265.67 42.9821 266.075 43.3745L264.273 45.7085C263.868 45.3837 263.4 45.1135 262.869 44.897C262.352 44.6669 261.801 44.4904 261.214 44.3687C260.641 44.2469 260.075 44.186 259.517 44.186C258.93 44.186 258.406 44.2399 257.945 44.3481C257.498 44.4429 257.135 44.5855 256.855 44.7749C256.59 44.9644 256.457 45.2216 256.457 45.5464C256.457 45.7899 256.57 46.0064 256.793 46.1958C257.016 46.3852 257.31 46.5339 257.673 46.6421C258.05 46.7368 258.455 46.8186 258.888 46.8862C259.321 46.9404 259.747 46.9942 260.166 47.0483C260.99 47.1431 261.786 47.2717 262.555 47.4341C263.337 47.5829 264.036 47.8063 264.65 48.104C265.279 48.3881 265.768 48.7802 266.117 49.2808C266.466 49.7814 266.641 50.4447 266.641 51.27C266.641 52.2577 266.341 53.1105 265.74 53.8276C265.14 54.5312 264.315 55.0728 263.268 55.4517C262.22 55.817 261.025 56.0005 259.685 56.0005C258.539 56.0005 257.491 55.8988 256.541 55.6958C255.591 55.4793 254.732 55.1881 253.964 54.8228C253.21 54.4439 252.518 54.011 251.89 53.5239L253.649 50.8442C254.697 51.6562 255.752 52.2385 256.813 52.5903C257.875 52.9286 258.909 53.0972 259.915 53.0972C260.362 53.0971 260.816 53.0562 261.276 52.9751C261.751 52.8804 262.135 52.7248 262.429 52.5083C262.736 52.2918 262.89 51.9945 262.89 51.6157C262.89 51.3993 262.82 51.2167 262.681 51.0679C262.541 50.919 262.339 50.7964 262.073 50.7017C261.808 50.5934 261.5 50.5056 261.151 50.438C260.816 50.3568 260.445 50.296 260.04 50.2554C259.649 50.2013 259.244 50.1604 258.825 50.1333C257.889 50.0251 257.044 49.8565 256.29 49.6265C255.536 49.3964 254.886 49.1053 254.341 48.7534C253.81 48.4016 253.405 47.9818 253.126 47.4946C252.847 46.9939 252.707 46.4255 252.707 45.7896C252.707 45.0724 252.881 44.4361 253.23 43.8813C253.594 43.3131 254.089 42.8393 254.718 42.4604C255.36 42.0681 256.094 41.7709 256.918 41.5679C257.756 41.3649 258.651 41.2632 259.601 41.2632Z" fill="var(--fill-0, white)"/>
<path d="M236.075 50.105H222.387V47.1577H236.075V50.105Z" fill="var(--fill-0, white)"/>
<path d="M236.945 44.2104H222.387V41.2632H236.945V44.2104Z" fill="var(--fill-0, white)"/>
</g>
</g>
</g>
</svg>
